<svg id="_x33_0" enable-background="new 0 0 64 64" height="512" viewBox="0 0 64 64" width="512" xmlns="http://www.w3.org/2000/svg"><g><g><g><path d="m47.27 51.27c-3.23 4.99-8.09 8.62-13.97 10.39l-1.15.34-1.15-.34c-5.9-1.77-10.95-5.41-14.25-10.41-.48-.73-.93-1.48-1.33-2.26-.53-1.01-.92-2.09-1.22-3.19-.07-.27-.14-.53-.2-.8l.54-1.45c1.62-4.31 1.42-9.03-.04-13.39l-1.5-4.16 6.33-2.67 5.63-2.37 7.04-2.96 7.04 2.96 5.63 2.37 6.33 2.67-1.5 4.16c-1.46 4.36-1.66 9.08-.04 13.39l.54 1.45c-.06.27-.13.53-.2.8-.3 1.1-.68 2.17-1.2 3.18-.41.79-.85 1.56-1.33 2.29z" fill="#fcd770"/></g><g><path d="m30 45.66v11.62c-2.37-.96-4.53-2.34-6.39-4.04-2.37-2.17-4.27-4.87-5.49-7.93l-.12-.31c.37-.98.67-1.98.91-3h7.43c.6 1.7 1.96 3.06 3.66 3.66z" fill="#ccd1d9"/></g><g><path d="m30 22.86v11.48c-1.7.6-3.06 1.96-3.66 3.66h-6.85c.03-.49.05-.99.05-1.48 0-2.58-.41-5.15-1.24-7.63l-.3-.89z" fill="#ccd1d9"/></g><g><path d="m46 28-.3.89c-.99 2.96-1.38 6.05-1.19 9.11h-6.85c-.6-1.7-1.96-3.06-3.66-3.66v-11.48z" fill="#ccd1d9"/></g><g><path d="m46 45-.12.31c-2.19 5.46-6.49 9.76-11.88 11.97v-11.62c1.7-.6 3.06-1.96 3.66-3.66h7.43c.24 1.02.54 2.02.91 3z" fill="#ccd1d9"/></g><g><path d="m34 45.66v11.62c-.65.28-1.32.51-2 .72-.68-.21-1.35-.44-2-.72v-11.62c.63.22 1.3.34 2 .34s1.37-.12 2-.34z" fill="#ffeaa7"/></g><g><path d="m62 2-5 14-8 3-2-2z" fill="#e6e9ed"/></g><g><path d="m62 2-15 15-2-2 3-8z" fill="#ccd1d9"/></g><g><path d="m61.29 57.29c.46.46.71 1.07.71 1.71s-.25 1.25-.71 1.71l-.58.58c-.46.46-1.07.71-1.71.71s-1.25-.25-1.71-.71l-10.02-10.02c.48-.73.92-1.5 1.33-2.29.52-1.01.9-2.08 1.2-3.18z" fill="#b27946"/></g><g><path d="m49 19-3 3-4-4 3-3 2 2z" fill="#b4dd7f"/></g><g><path d="m46 22-1.33 1.33-5.63-2.37 2.96-2.96z" fill="#b27946"/></g><g><path d="m45.09 42h-7.43c.22-.63.34-1.3.34-2s-.12-1.37-.34-2h6.85c.08 1.34.28 2.68.58 4z" fill="#ffeaa7"/></g><g><path d="m37.66 38c.22.63.34 1.3.34 2s-.12 1.37-.34 2c-.6 1.7-1.96 3.06-3.66 3.66-.63.22-1.3.34-2 .34s-1.37-.12-2-.34c-1.7-.6-3.06-1.96-3.66-3.66-.22-.63-.34-1.3-.34-2s.12-1.37.34-2c.6-1.7 1.96-3.06 3.66-3.66.63-.22 1.3-.34 2-.34s1.37.12 2 .34c1.7.6 3.06 1.96 3.66 3.66z" fill="#fcd770"/></g><g><path d="m34 22.86v11.48c-.63-.22-1.3-.34-2-.34s-1.37.12-2 .34v-11.48l2-.86z" fill="#ffeaa7"/></g><g><circle cx="32" cy="40" fill="#ffc729" r="2"/></g><g><path d="m19.49 38h6.85c-.22.63-.34 1.3-.34 2s.12 1.37.34 2h-7.43c.3-1.32.5-2.66.58-4z" fill="#ffeaa7"/></g><g><path d="m24.96 20.96-5.63 2.37-1.33-1.33 4-4z" fill="#b27946"/></g><g><path d="m22 18-4 4-3-3 2-2 2-2z" fill="#b4dd7f"/></g><g><path d="m16 7 3 8-2 2-15-15z" fill="#ccd1d9"/></g><g><path d="m17 17-2 2-8-3-5-14z" fill="#e6e9ed"/></g><g><path d="m16.75 51.25-10.04 10.04c-.46.46-1.07.71-1.71.71s-1.25-.25-1.71-.71l-.58-.58c-.46-.46-.71-1.07-.71-1.71s.25-1.25.71-1.71l11.49-11.49c.3 1.1.69 2.18 1.22 3.19.4.78.85 1.53 1.33 2.26z" fill="#b27946"/></g></g><g><path d="m32 37c-1.654 0-3 1.346-3 3s1.346 3 3 3 3-1.346 3-3-1.346-3-3-3zm0 4c-.552 0-1-.449-1-1s.448-1 1-1 1 .449 1 1-.448 1-1 1z"/><path d="m47.239 27.443-15.239-6.531-15.239 6.531.589 1.768c1.67 5.011 1.568 10.494-.286 15.438l-.136.362.266.667c2.578 6.445 7.87 11.286 14.52 13.28l.286.086.287-.086c6.649-1.995 11.941-6.835 14.518-13.279l.268-.667-.136-.363c-1.854-4.944-1.956-10.427-.285-15.438zm-8.319 11.557h4.674c.066.67.156 1.337.276 2h-4.95c.047-.328.08-.66.08-1s-.033-.672-.08-1zm5.834-10.422c-.909 2.725-1.327 5.578-1.274 8.422h-5.165c-.692-1.45-1.865-2.623-3.315-3.315v-9.312l9.761 4.183zm-12.754 16.422c-2.757 0-5-2.243-5-5s2.243-5 5-5 5 2.243 5 5-2.243 5-5 5zm1-21.484v9.563c-.328-.046-.66-.079-1-.079s-.672.033-1 .08v-9.563l1-.429zm-4 .858v9.312c-1.45.692-2.623 1.865-3.315 3.315h-5.165c.054-2.844-.365-5.697-1.273-8.421l-.008-.022zm-3.92 16.626h-4.95c.119-.663.21-1.33.276-2h4.674c-.047.328-.08.66-.08 1s.033.672.08 1zm-6.01 3.984c.234-.654.439-1.316.616-1.984h5.999c.692 1.45 1.865 2.623 3.315 3.315v9.425c-4.489-2.23-8.018-6.011-9.93-10.756zm12.93 11.97c-.338-.107-.67-.224-1-.346v-9.688c.328.047.66.08 1 .08s.672-.033 1-.08v9.687c-.33.123-.662.24-1 .347zm3-1.214v-9.425c1.45-.692 2.623-1.865 3.315-3.315h5.998c.178.668.382 1.33.616 1.983-1.911 4.745-5.44 8.527-9.929 10.757z"/><path d="m50.906 45.492c.022-.091.048-.176.069-.268l.067-.293-.65-1.735c-1.45-3.865-1.432-8.264.046-12.697l1.826-5.051-5.838-2.458 3.128-3.128 8.232-3.087 5.865-16.425-16.424 5.864-3.087 8.232-5.334 5.334-6.806-2.865-6.805 2.865-5.334-5.334-3.087-8.232-16.425-5.866 5.865 16.425 8.232 3.087 3.128 3.129-5.837 2.458 1.817 5.029c1.485 4.456 1.504 8.854.054 12.719l-.65 1.735.067.292c.021.093.047.178.069.269l-11.094 11.094c-.645.645-1 1.502-1 2.415s.355 1.77 1 2.414l.586.586c.645.645 1.503 1 2.414 1s1.769-.355 2.414-1l9.194-9.194c3.393 4.637 8.284 8.061 14.104 9.808l1.437.431 1.437-.431c5.687-1.706 10.484-5.121 13.833-9.78l9.167 9.166c.646.645 1.503 1 2.414 1s1.769-.355 2.414-1l.586-.585c.645-.645 1-1.502 1-2.415s-.355-1.77-1-2.414zm5.308-30.265-6.962 2.611-.838-.838 11.149-11.149zm-7.441-7.441 9.375-3.348-11.148 11.148-.838-.838zm-3.773 8.628 2.586 2.586-1.586 1.586-2.586-2.586zm-3 3 2.586 2.586-.151.151-3.64-1.532zm-22.435 2.737-.151-.151 2.586-2.586 1.204 1.204zm1.021-4.151-2.586 2.586-1.586-1.586 2.586-2.586zm-2.748-3.252-.838.838-11.148-11.148 9.375 3.348zm-13.401-8.897 11.149 11.149-.838.838-6.962-2.611zm1.563 54.734c-.535.535-1.465.535-2 0l-.586-.585c-.268-.267-.414-.622-.414-1s.146-.733.414-1l10.334-10.334c.232.627.488 1.224.781 1.788.294.567.615 1.116.947 1.655zm27.012.112-.862.259-.862-.259c-6.623-1.987-11.944-6.307-14.982-12.164-.529-1.02-.943-2.157-1.262-3.467l.438-1.169c1.612-4.299 1.603-9.159-.038-14.078l-1.181-3.267 17.737-7.467 17.737 7.468-1.188 3.289c-1.633 4.897-1.643 9.757-.03 14.056l.438 1.168c-.318 1.303-.729 2.438-1.251 3.463-3.014 5.908-8.232 10.229-14.694 12.168zm27.574-.697-.586.585c-.535.535-1.465.535-2 0l-9.461-9.461c.333-.549.654-1.108.949-1.686.286-.561.537-1.152.765-1.772l10.333 10.334c.268.267.414.622.414 1s-.146.733-.414 1z"/></g></g></svg>