<svg width="256" height="256" viewBox="0 0 256 256" shape-rendering="geometricPrecision" version="1.1" xmlns="http://www.w3.org/2000/svg"><desc>Created by https://guilds.gw2w2w.com/</desc><rect x="0" y="0" width="256" height="256" fill="none" stroke="none"/><g>
<g fill="rgb(133,36,26)" stroke="rgb(133,36,26)" stroke-width=".05%" stroke-opacity="50%" opacity="0.7"><path d=" M 100.42 16.12 C 108.83 14.28 117.39 12.80 126.04 13.23 C 126.11 15.03 126.18 16.83 126.27 18.64 C 122.01 19.35 117.68 19.31 113.39 19.68 C 109.45 20.25 105.57 21.26 101.62 21.81 C 101.22 19.91 100.83 18.01 100.42 16.12 Z"/>
<path d=" M 129.93 13.23 C 138.64 12.88 147.34 14.12 155.76 16.31 C 155.29 18.15 154.82 19.99 154.35 21.83 C 146.27 19.97 138.04 19.36 129.81 18.73 C 129.86 16.90 129.90 15.06 129.93 13.23 Z"/>
<path d=" M 72.43 27.21 C 80.00 23.04 88.02 19.72 96.32 17.30 C 96.89 19.21 97.45 21.12 98.02 23.04 C 90.02 25.17 82.44 28.59 75.14 32.45 C 74.25 30.70 73.34 28.95 72.43 27.21 Z"/>
<path d=" M 159.65 17.29 C 167.99 19.73 176.05 23.04 183.64 27.27 C 182.70 28.99 181.76 30.71 180.83 32.44 C 173.61 28.58 166.08 25.25 158.16 23.08 C 158.65 21.15 159.15 19.22 159.65 17.29 Z"/>
<path d=" M 88.21 27.54 C 104.49 20.45 122.75 18.28 140.32 20.55 C 139.94 22.27 139.58 23.99 139.22 25.72 C 122.80 24.50 105.92 26.19 90.61 32.49 C 89.82 30.84 89.02 29.19 88.21 27.54 Z"/>
<path d=" M 143.70 20.99 C 161.28 23.05 177.90 30.57 192.12 40.93 C 190.99 42.33 189.87 43.74 188.77 45.16 C 183.64 41.95 178.70 38.38 173.13 35.93 C 163.73 31.16 153.46 28.43 143.19 26.28 C 143.37 24.52 143.54 22.76 143.70 20.99 Z"/>
<path d=" M 43.43 60.76 C 54.23 46.89 68.45 35.47 84.88 29.01 C 85.56 30.66 86.25 32.30 86.96 33.94 C 71.84 40.67 58.28 51.02 47.96 63.96 C 46.45 62.88 44.94 61.82 43.43 60.76 Z"/>
<path d=" M 48.29 45.14 C 54.56 39.14 61.41 33.72 68.92 29.34 C 69.90 31.01 70.90 32.68 71.90 34.34 C 64.77 38.51 58.51 43.92 52.22 49.22 C 50.94 47.83 49.63 46.47 48.29 45.14 Z"/>
<path d=" M 184.15 34.39 C 185.14 32.71 186.13 31.03 187.11 29.35 C 194.59 33.73 201.43 39.13 207.68 45.11 C 206.32 46.55 204.97 48.00 203.62 49.45 C 197.78 43.63 191.11 38.76 184.15 34.39 Z"/>
<path d=" M 191.70 47.68 C 192.80 46.18 193.88 44.66 194.96 43.15 C 204.14 50.27 211.94 59.05 218.36 68.71 C 221.39 73.81 224.24 79.03 226.94 84.31 C 225.23 85.04 223.53 85.78 221.83 86.53 C 214.57 71.73 204.62 58.05 191.70 47.68 Z"/>
<path d=" M 29.69 68.77 C 34.22 61.35 39.31 54.19 45.53 48.09 C 46.92 49.42 48.32 50.73 49.72 52.04 C 44.13 58.07 39.01 64.57 34.84 71.67 C 33.13 70.69 31.41 69.73 29.69 68.77 Z"/>
<path d=" M 206.29 52.06 C 207.74 50.75 209.18 49.43 210.62 48.11 C 216.66 54.34 221.84 61.35 226.31 68.77 C 224.58 69.73 222.86 70.70 221.14 71.68 C 217.05 64.54 211.88 58.07 206.29 52.06 Z"/>
<path d=" M 41.18 63.65 C 42.63 64.75 44.10 65.84 45.57 66.92 C 36.00 80.47 29.59 96.20 26.98 112.58 C 25.12 112.45 23.27 112.33 21.41 112.21 C 23.76 94.69 30.71 77.88 41.18 63.65 Z"/>
<path d=" M 18.02 96.09 C 20.16 87.70 23.64 79.70 27.81 72.14 C 29.48 73.14 31.15 74.13 32.83 75.12 C 28.87 82.31 26.00 90.00 23.43 97.77 C 21.63 97.20 19.83 96.64 18.02 96.09 Z"/>
<path d=" M 223.26 74.99 C 224.97 74.07 226.67 73.14 228.37 72.20 C 232.29 79.88 235.93 87.77 238.00 96.17 C 236.18 96.70 234.36 97.24 232.54 97.79 C 230.13 89.92 226.97 82.33 223.26 74.99 Z"/>
<path d=" M 223.33 90.08 C 224.97 89.34 226.61 88.60 228.24 87.85 C 234.40 104.24 237.15 122.20 234.63 139.59 C 232.93 139.40 231.23 139.21 229.54 139.03 C 229.83 129.00 230.17 118.84 228.16 108.95 C 226.89 102.58 225.09 96.33 223.33 90.08 Z"/>
<path d=" M 16.86 100.10 C 18.81 100.63 20.77 101.15 22.72 101.67 C 20.57 109.53 19.49 117.68 19.26 125.82 C 17.24 125.78 15.23 125.75 13.22 125.73 C 13.68 117.11 14.90 108.51 16.86 100.10 Z"/>
<path d=" M 233.42 101.63 C 235.32 101.14 237.22 100.63 239.12 100.12 C 241.11 108.51 242.34 117.11 242.79 125.73 C 240.77 125.75 238.76 125.78 236.74 125.82 C 236.46 117.68 235.36 109.55 233.42 101.63 Z"/>
<path d=" M 20.70 115.53 C 22.64 115.89 24.58 116.25 26.53 116.59 C 24.35 133.03 27.93 149.56 32.87 165.20 C 31.21 165.99 29.56 166.78 27.91 167.59 C 23.85 156.82 21.25 145.50 20.45 134.01 C 20.34 127.85 20.58 121.69 20.70 115.53 Z"/>
<path d=" M 13.24 129.83 C 15.24 129.77 17.24 129.70 19.24 129.62 C 19.60 137.87 20.99 146.04 22.78 154.09 C 20.87 154.49 18.96 154.92 17.06 155.34 C 15.11 146.96 13.78 138.41 13.24 129.83 Z"/>
<path d=" M 236.79 129.62 C 238.78 129.70 240.77 129.77 242.77 129.83 C 242.25 138.41 240.86 146.95 238.96 155.33 C 237.05 154.89 235.14 154.46 233.23 154.05 C 235.11 146.03 236.29 137.85 236.79 129.62 Z"/>
<path d=" M 210.20 187.67 C 219.84 174.32 226.09 158.67 228.89 142.47 C 230.74 142.76 232.59 143.07 234.44 143.39 C 231.76 160.68 224.79 177.15 214.48 191.28 C 213.03 190.10 211.59 188.90 210.20 187.67 Z"/>
<path d=" M 18.29 159.00 C 20.19 158.68 22.10 158.36 24.01 158.04 C 26.21 165.79 29.43 173.18 33.25 180.26 C 31.55 181.21 29.85 182.16 28.14 183.11 C 23.95 175.49 20.29 167.50 18.29 159.00 Z"/>
<path d=" M 232.04 157.64 C 233.93 158.15 235.82 158.66 237.72 159.16 C 235.64 167.55 232.06 175.47 227.93 183.02 C 226.18 182.07 224.44 181.12 222.69 180.18 C 226.73 173.10 229.91 165.51 232.04 157.64 Z"/>
<path d=" M 29.25 170.87 C 30.96 170.22 32.68 169.56 34.39 168.89 C 38.81 177.12 43.63 185.19 49.56 192.42 C 54.11 198.06 59.82 202.58 64.85 207.75 C 63.66 209.14 62.46 210.52 61.26 211.91 C 58.87 209.55 56.23 207.46 53.41 205.66 C 58.74 211.59 65.42 216.06 72.11 220.29 C 71.27 222.05 70.34 223.77 69.35 225.46 C 61.93 221.05 54.90 215.87 48.81 209.72 C 50.39 208.19 52.03 206.74 53.73 205.35 C 47.81 199.49 42.42 193.09 37.76 186.19 C 34.71 181.20 31.96 176.04 29.25 170.87 Z"/>
<path d=" M 30.27 186.70 C 31.89 185.65 33.51 184.60 35.12 183.54 C 39.43 190.53 44.61 196.89 50.11 202.97 C 48.73 204.27 47.36 205.59 46.00 206.91 C 39.89 200.91 34.72 194.00 30.27 186.70 Z"/>
<path d=" M 220.93 183.58 C 222.56 184.54 224.19 185.49 225.84 186.45 C 221.43 193.87 216.17 200.83 210.02 206.90 C 208.68 205.54 207.33 204.20 205.98 202.87 C 211.49 196.85 216.54 190.45 220.93 183.58 Z"/>
<path d=" M 190.10 208.08 C 196.74 203.14 202.19 196.90 207.85 190.92 C 209.35 191.98 210.85 193.03 212.36 194.07 C 201.45 207.86 187.10 218.84 171.02 225.93 C 170.42 224.26 169.82 222.59 169.21 220.93 C 176.51 217.21 183.46 212.86 190.10 208.08 Z"/>
<path d=" M 199.63 208.67 C 200.85 207.52 202.25 206.58 203.73 205.80 C 204.82 207.17 205.94 208.51 207.11 209.81 C 201.08 215.87 194.13 220.98 186.82 225.38 C 185.82 223.67 184.85 221.96 183.91 220.23 C 189.48 216.87 194.87 213.13 199.63 208.67 Z"/>
<path d=" M 64.37 213.99 C 65.56 212.63 66.76 211.27 67.94 209.90 C 76.16 215.63 85.15 220.21 94.58 223.57 C 100.71 225.77 107.15 226.88 113.43 228.51 C 113.14 230.26 112.85 232.01 112.57 233.76 C 95.15 231.45 78.51 224.36 64.37 213.99 Z"/>
<path d=" M 72.87 227.57 C 73.75 225.80 74.66 224.05 75.60 222.31 C 82.79 226.27 90.48 229.21 98.26 231.79 C 97.70 233.56 97.15 235.35 96.61 237.13 C 88.26 235.15 80.47 231.46 72.87 227.57 Z"/>
<path d=" M 146.36 227.52 C 152.91 226.33 159.20 224.11 165.64 222.45 C 166.32 224.10 167.01 225.76 167.70 227.41 C 151.46 233.97 133.70 235.72 116.33 234.31 C 116.52 232.45 116.70 230.59 116.86 228.73 C 126.71 229.80 136.62 229.23 146.36 227.52 Z"/>
<path d=" M 157.94 231.74 C 165.67 229.15 173.29 226.19 180.46 222.29 C 181.40 224.01 182.33 225.75 183.23 227.50 C 175.62 231.44 167.81 235.13 159.44 237.12 C 158.95 235.32 158.46 233.52 157.94 231.74 Z"/>
<path d=" M 101.87 232.56 C 109.70 234.53 117.77 235.66 125.86 235.82 C 125.96 237.81 126.07 239.80 126.16 241.80 C 117.52 241.66 108.92 240.34 100.52 238.33 C 100.98 236.41 101.43 234.48 101.87 232.56 Z"/>
<path d=" M 130.14 235.81 C 138.23 235.67 146.32 234.56 154.14 232.48 C 154.62 234.41 155.12 236.34 155.63 238.27 C 147.19 240.35 138.53 241.65 129.84 241.80 C 129.93 239.80 130.04 237.80 130.14 235.81 Z"/></g>
</g><g>
<g fill="rgb(189,186,185)" stroke="rgb(189,186,185)" stroke-width=".05%" stroke-opacity="50%"><path d=" M 122.72 26.46 C 126.24 26.35 129.76 26.35 133.28 26.46 C 133.27 27.53 133.25 28.61 133.23 29.68 C 129.74 29.75 126.25 29.75 122.77 29.68 C 122.75 28.61 122.73 27.53 122.72 26.46 Z"/>
<path d=" M 124.18 31.27 C 126.73 31.27 129.27 31.27 131.82 31.27 C 131.80 32.73 131.78 34.20 131.77 35.66 C 129.26 35.63 126.74 35.63 124.23 35.66 C 124.22 34.20 124.20 32.73 124.18 31.27 Z"/>
<path d=" M 124.35 37.15 C 126.76 37.27 129.16 37.26 131.57 37.15 C 131.73 38.59 131.91 40.02 132.13 41.46 C 129.46 41.58 126.79 41.60 124.12 41.55 C 124.20 40.08 124.28 38.61 124.35 37.15 Z"/>
<path d=" M 124.21 43.28 C 126.74 43.28 129.26 43.28 131.79 43.28 C 131.78 44.81 131.77 46.34 131.77 47.87 C 129.26 47.87 126.74 47.87 124.23 47.87 C 124.22 46.34 124.22 44.81 124.21 43.28 Z"/>
<path d=" M 124.28 49.68 C 126.76 49.66 129.24 49.66 131.72 49.68 C 131.73 51.14 131.74 52.60 131.74 54.05 C 129.25 53.86 126.75 53.86 124.26 54.05 C 124.26 52.59 124.27 51.14 124.28 49.68 Z"/>
<path d=" M 124.14 55.73 C 126.69 55.65 129.25 55.65 131.80 55.68 C 131.77 57.16 131.74 58.65 131.71 60.13 C 129.25 60.11 126.79 60.11 124.33 60.14 C 124.26 58.67 124.20 57.20 124.14 55.73 Z"/>
<path d=" M 124.26 61.65 C 126.75 61.63 129.25 61.63 131.74 61.65 C 131.74 63.25 131.73 64.85 131.72 66.46 C 129.24 66.46 126.76 66.46 124.28 66.46 C 124.27 64.85 124.26 63.25 124.26 61.65 Z"/>
<path d=" M 124.06 68.30 C 126.69 68.14 129.32 68.14 131.95 68.31 C 131.84 69.81 131.75 71.32 131.67 72.83 C 129.22 72.85 126.77 72.85 124.33 72.84 C 124.24 71.32 124.16 69.81 124.06 68.30 Z"/>
<path d=" M 124.14 74.47 C 126.71 74.55 129.28 74.55 131.85 74.46 C 131.79 75.92 131.72 77.38 131.67 78.85 C 129.22 78.74 126.78 78.74 124.33 78.85 C 124.27 77.39 124.21 75.93 124.14 74.47 Z"/>
<path d=" M 98.29 90.83 C 103.92 85.80 110.76 82.32 118.12 80.70 C 124.70 80.38 131.30 80.38 137.87 80.70 C 145.25 82.31 152.08 85.81 157.72 90.84 C 157.52 92.29 157.31 93.74 157.08 95.20 C 151.41 91.33 145.15 87.86 138.16 87.37 C 132.14 86.33 125.99 85.71 119.96 87.11 C 112.23 87.40 105.14 90.82 98.91 95.19 C 98.68 93.74 98.47 92.29 98.29 90.83 Z"/>
<path d=" M 116.51 89.35 C 118.97 88.74 121.49 88.36 123.95 87.73 C 126.66 87.65 129.37 87.64 132.09 87.74 C 134.53 88.36 137.03 88.76 139.49 89.36 C 139.31 109.90 139.67 130.45 138.04 150.95 C 137.45 163.35 136.62 175.73 136.06 188.13 C 135.16 196.07 133.94 203.98 132.74 211.86 C 131.87 218.48 130.04 224.93 129.25 231.56 C 128.64 231.54 127.41 231.49 126.80 231.47 C 124.18 217.05 121.63 202.60 120.01 188.04 C 118.91 168.02 117.71 148.02 116.72 128.00 C 116.55 115.12 116.71 102.23 116.51 89.35 Z"/></g>
<g fill="rgb(0,108,108)" stroke="rgb(0,108,108)" stroke-width=".05%" stroke-opacity="50%"><path d=" M 86.06 28.84 C 87.76 28.58 89.47 28.33 91.17 28.09 C 89.53 29.55 87.24 30.67 86.61 32.94 C 87.99 38.61 92.93 42.27 95.99 46.95 C 99.35 53.57 101.81 61.33 99.65 68.73 C 98.59 72.83 94.89 75.38 92.97 79.01 C 90.00 85.47 90.80 93.47 94.65 99.40 C 97.97 103.18 103.00 105.79 108.14 105.36 C 107.94 115.56 108.50 125.75 109.06 135.93 C 109.04 152.07 112.23 167.98 113.31 184.05 C 110.26 173.91 108.81 163.39 106.91 153.01 C 103.77 141.90 98.41 131.14 89.96 123.12 C 86.69 120.24 83.08 117.54 78.88 116.20 C 72.91 114.62 68.18 109.91 65.13 104.72 C 64.31 101.17 64.45 96.85 67.04 94.00 C 69.93 90.18 76.76 89.36 79.62 93.65 C 78.68 95.95 77.59 98.23 75.72 99.94 C 75.83 97.84 76.15 95.77 76.53 93.71 C 71.79 91.77 68.24 99.18 71.34 102.55 C 72.45 104.60 74.72 104.91 76.82 104.96 C 78.83 102.67 81.54 100.82 82.73 97.93 C 83.63 93.19 81.90 88.52 81.08 83.90 C 79.82 78.02 75.37 73.64 72.44 68.59 C 70.22 64.58 71.78 59.05 75.67 56.68 C 79.00 54.57 81.81 51.60 83.01 47.77 C 83.39 49.99 84.67 52.39 83.55 54.59 C 82.24 56.73 80.02 58.40 79.68 61.04 C 78.78 63.61 80.77 66.20 83.16 66.98 C 88.38 65.45 90.54 59.85 91.58 55.02 C 92.67 49.26 87.60 45.25 85.65 40.35 C 83.46 36.80 84.06 32.33 86.06 28.84 Z"/>
<path d=" M 164.83 28.12 C 166.54 28.35 168.25 28.59 169.96 28.84 C 171.94 32.34 172.54 36.82 170.33 40.38 C 168.51 45.02 163.90 48.70 164.31 54.06 C 165.00 59.51 167.62 65.12 173.00 67.32 C 174.84 65.77 177.39 63.80 176.32 61.03 C 175.99 58.14 173.28 56.50 172.18 53.98 C 171.60 51.90 172.61 49.82 172.99 47.78 C 174.21 51.63 177.03 54.60 180.38 56.72 C 184.25 59.09 185.77 64.62 183.55 68.61 C 180.61 73.66 176.17 78.04 174.92 83.92 C 174.10 88.55 172.35 93.23 173.29 97.98 C 174.47 100.80 177.10 102.64 179.12 104.83 C 180.30 104.81 181.50 104.78 182.69 104.75 C 184.07 103.07 186.04 101.42 185.88 99.02 C 185.51 95.96 182.99 92.15 179.47 93.71 C 179.84 95.77 180.17 97.84 180.29 99.93 C 178.55 98.27 177.07 96.25 176.74 93.80 C 178.08 89.90 183.29 90.41 186.36 91.78 C 190.89 94.20 192.13 100.03 190.89 104.68 C 187.63 110.43 182.21 115.19 175.67 116.71 C 161.57 123.23 153.60 138.02 149.27 152.28 C 147.20 162.86 145.87 173.64 142.70 183.98 C 143.60 170.30 146.09 156.75 146.76 143.04 C 146.98 130.47 148.20 117.94 147.86 105.36 C 152.98 105.80 157.99 103.20 161.31 99.44 C 165.21 93.51 166.00 85.45 163.01 78.96 C 161.08 75.36 157.40 72.81 156.35 68.72 C 154.19 61.33 156.65 53.58 160.00 46.96 C 163.07 42.27 168.01 38.62 169.38 32.94 C 168.79 30.66 166.45 29.57 164.83 28.12 Z"/>
<path d=" M 110.65 60.63 C 112.67 64.04 113.51 68.22 112.05 72.01 C 110.20 78.69 102.79 80.65 97.65 84.14 C 97.41 82.44 97.13 80.63 98.01 79.05 C 99.38 75.13 104.22 74.70 106.77 71.80 C 110.10 69.12 111.01 64.70 110.65 60.63 Z"/>
<path d=" M 144.18 72.65 C 142.47 68.72 143.19 64.22 145.34 60.62 C 145.06 64.46 145.71 68.69 148.78 71.35 C 151.50 74.72 157.10 75.12 158.26 79.75 C 158.90 81.15 158.47 82.68 158.34 84.14 C 153.39 80.73 146.31 78.91 144.18 72.65 Z"/>
<path d=" M 55.43 66.28 C 58.60 67.51 61.57 70.98 60.43 74.54 C 59.47 77.91 56.06 79.49 53.90 81.96 C 50.37 85.32 50.91 91.02 52.92 95.04 C 55.11 90.25 57.05 84.64 62.02 82.01 C 65.84 79.35 70.74 80.34 74.95 78.77 C 75.90 81.20 76.76 83.66 77.53 86.16 C 74.03 87.20 70.07 86.80 66.92 88.88 C 64.45 90.19 63.68 93.10 62.43 95.40 C 59.68 100.44 60.56 107.00 63.76 111.64 C 63.26 111.66 62.26 111.69 61.76 111.70 C 64.68 112.66 66.56 115.22 68.99 116.94 C 71.99 119.32 75.78 120.26 79.16 121.94 C 87.89 126.86 95.46 134.29 99.50 143.54 C 102.90 154.07 104.92 165.03 106.54 175.97 C 102.28 171.37 98.59 166.27 94.02 161.97 C 89.49 157.22 84.29 153.14 80.21 147.98 C 82.13 145.36 85.45 144.59 88.37 145.97 C 87.41 147.03 86.44 148.08 85.45 149.11 C 86.47 151.64 87.86 154.79 91.04 154.92 C 95.01 155.76 97.95 151.04 96.58 147.59 C 95.08 143.38 93.60 138.82 90.14 135.79 C 85.85 132.02 80.34 130.21 75.32 127.68 C 69.66 124.84 63.62 122.87 57.83 120.33 C 52.27 118.44 47.61 114.51 44.04 109.93 C 42.14 106.51 40.86 102.72 39.98 98.91 C 39.84 91.76 42.05 84.40 47.13 79.20 C 50.27 76.02 54.80 74.72 57.77 71.34 C 57.02 69.64 56.21 67.97 55.43 66.28 Z"/>
<path d=" M 195.83 75.28 C 194.14 71.78 196.95 67.15 200.69 66.66 C 199.54 68.15 197.56 70.78 199.39 72.55 C 202.10 74.99 205.71 76.18 208.37 78.73 C 213.82 83.90 216.18 91.58 216.01 98.95 C 215.12 102.77 213.85 106.58 211.91 110.00 C 209.15 113.53 205.73 116.62 201.79 118.77 C 194.39 122.16 186.60 124.64 179.33 128.33 C 173.75 131.06 167.33 133.15 163.53 138.39 C 161.63 141.43 160.24 144.80 159.26 148.25 C 158.33 151.62 161.33 155.77 165.04 154.91 C 168.24 154.72 169.55 151.50 170.63 148.98 C 169.63 148.18 168.65 147.36 167.67 146.54 C 170.17 144.09 173.91 145.48 175.79 147.98 C 169.84 155.24 162.16 160.87 156.22 168.14 C 154.07 170.84 151.70 173.34 149.47 175.95 C 150.20 171.77 150.56 167.51 151.54 163.37 C 153.36 156.01 154.28 148.35 157.43 141.38 C 161.35 134.27 166.98 128.09 173.87 123.76 C 177.87 120.70 183.13 120.04 187.06 116.89 C 189.21 115.23 191.14 113.28 193.47 111.86 C 193.29 111.46 193.11 111.06 192.93 110.67 C 197.02 103.95 195.03 95.51 190.30 89.72 C 187.01 86.83 182.43 87.26 178.46 86.15 C 179.23 83.66 180.10 81.20 181.06 78.77 C 185.26 80.33 190.13 79.35 193.95 81.99 C 198.98 84.63 200.87 90.33 203.17 95.12 C 204.85 91.19 205.69 85.87 202.53 82.44 C 200.49 79.86 197.16 78.40 195.83 75.28 Z"/></g>


</g></svg>