<svg id="Capa_1" enable-background="new 0 0 512 512" height="512" viewBox="0 0 512 512" width="512" xmlns="http://www.w3.org/2000/svg"><g><g><g><path d="m256 512c-175 0-241.362-164.008-254.942-203.998-1.836-5.406-1.262-11.331 1.565-16.293l133.571-234.436c23.915-34.238 68.612-57.273 119.806-57.273 51.194 0 95.891 23.035 119.806 57.273l133.571 234.436c2.827 4.962 3.401 10.887 1.565 16.293-13.58 39.99-79.942 203.998-254.942 203.998z" fill="#c28459"/><path d="m375.806 57.273c-23.836-34.125-68.319-57.114-119.301-57.266v511.989c174.621-.317 240.87-164.045 254.437-203.994 1.836-5.406 1.262-11.331-1.565-16.293z" fill="#a56032"/></g><g><path d="m136.578 211.584c-25.478 23.416-41.429 56.871-41.429 94.023v146.603c38.755 33.804 91.195 59.79 160.851 59.79 69.656 0 122.096-25.986 160.851-59.791v-146.602c0-35.405-18.017-70.82-41.429-94.022h-238.844z" fill="#854d29"/><path d="m375.422 211.584-118.917-.003v300.413c69.402-.126 121.685-26.063 160.346-59.785v-146.602c0-35.405-18.017-70.821-41.429-94.023z" fill="#633a1e"/></g></g><g><g><path d="m224.523 177.394c-33.963 0-64.863 12.976-87.945 34.19-.513 4.15-.782 8.375-.782 12.663v43.006 56.45c0 56.913 46.556 103.051 103.985 103.051h16.724l6.639-75.948 3.378-43.732-10.018-129.679h-31.981z" fill="#f5dfbb"/><path d="m375.422 211.584c-23.082-21.214-53.982-34.19-87.945-34.19h-30.971v173.411 75.948h15.714c57.429 0 103.985-46.137 103.985-103.051v-56.45-43.006c-.001-4.287-.27-8.512-.783-12.662z" fill="#edbdab"/></g><g><path d="m220.106 350.805c-46.563 0-84.31-37.408-84.31-83.553v66.45c0 56.913 46.556 103.051 103.985 103.051h16.724l10.018-51.533-10.018-34.415z" fill="#fbf4f4"/><path d="m291.893 350.805h-35.388v85.948h15.714c57.429 0 103.985-46.137 103.985-103.051v-66.45c0 46.145-37.747 83.553-84.311 83.553z" fill="#e2e9ee"/></g></g></g></svg>